<?xml version="1.0" encoding="UTF-8"?>
<svg id="Layer_1" xmlns="http://www.w3.org/2000/svg" version="1.1" viewBox="0 0 492.78 491.48">
  <!-- Generator: Adobe Illustrator 29.7.1, SVG Export Plug-In . SVG Version: 2.1.1 Build 8)  -->
  <defs>
    <style>
      .st0 {
        fill: #155dfc;
      }

      .st1 {
        fill: #3abdc8;
      }
    </style>
  </defs>
  <path class="st0" d="M211.06,73.96c-.38-23.11.28-46.33,0-69.45h281.24c2.94,59.48-7.29,118.82-40.26,168.95-8.79,13.36-20.12,24.58-29.18,37.66-37.59-.14-75.26.1-112.84,0,.09-2.79-.53-5.66.29-8.39,54.34-21.43,97.56-70.81,107.35-128.77h-137.15v416.68H.99c-6.33-78.55,17.63-153.98,72.91-210.08,42.76.13,86.87-1.52,129.44-.1,2.77.09,5.25.56,7.69,1.85.78-3.2,1.61-6.11,1.84-9.48,4.32-62.89-.79-135.6-1.82-198.87h.01ZM211.06,421.2v-137.16c-68.71,14.89-122.58,68.2-137.15,137.16h137.15Z"/>
  <path class="st1" d="M211.06,73.96c1.04,63.27,6.14,135.98,1.82,198.87-.23,3.37-1.06,6.28-1.84,9.48-2.44-1.29-4.91-1.75-7.69-1.85-42.57-1.43-86.69.23-129.44.1-24.28-.07-48.64.05-72.91,0V1.04c78.29-6.35,155.07,16.07,210.06,72.92ZM207.58,211.12c-12.65-68.37-68.95-124.12-137.15-137.16v137.16h137.15Z"/>
  <path class="st1" d="M422.86,211.12c21.96.08,44.01-.06,65.97,0v279.52c-63.88,4.2-127.22-6.87-178.82-46.01v-96.36l26.02,28.67c18.63,15.54,39.61,28.68,62.9,36.06,3.32,1.05,20.46,6.67,20.46,2.11v-134.55h-109.37c.55-23.09-.75-46.37,0-69.45,37.59.1,75.26-.14,112.84,0h0Z"/>
</svg>